<?xml version="1.0" encoding="UTF-8"?>
<svg id="Layer_2" data-name="Layer 2" xmlns="http://www.w3.org/2000/svg" viewBox="0 0 205.5 205.5">
  <defs>
    <style>
      .cls-1 {
        fill: #71104c;
      }

      .cls-1, .cls-2 {
        stroke-width: 0px;
      }

      .cls-2 {
        fill: #eae1e6;
      }
    </style>
  </defs>
  <g id="Layer_1-2" data-name="Layer 1">
    <rect class="cls-2" x="30.1" y="30.1" width="145.31" height="145.31" transform="translate(-42.56 102.75) rotate(-45)"/>
    <g>
      <path class="cls-1" d="M161.58,121.19c0,15.43-12.09,25.58-31.76,25.58h-48.21c0-2.44.39-5.4,1.16-7.46l7.84-2.06c-.77-4.24-1.03-9.13-1.03-13.11v-46.67c0-8.36-2.44-10.41-9.13-10.41,0-2.7.64-6.69,1.54-8.23,3.6-.39,15.68-.77,21.34-.77h25.84c17.48,0,26.36,8.23,26.36,20.7,0,9.77-7.07,18.9-16.58,20.96v.51c14.27,1.29,22.63,8.74,22.63,20.96ZM111.19,68.23v27.9h9.26c8.87,0,13.76-5.91,13.76-14.27s-4.5-13.63-13.76-13.63h-9.26ZM138.31,121.45c0-9.64-5.66-14.78-15.17-14.78h-11.96v21.08c0,7.33,2.44,9.26,8.36,9.26h4.24c9.39,0,14.53-6.04,14.53-15.56Z"/>
      <path class="cls-2" d="M74.67,58.62s28.53.76,27.83,22.08-27.83,26.52-27.83,26.52v-48.6Z"/>
      <path class="cls-2" d="M76.15,96.08s26.72,6.41,26.01,27.73-26.01,23.63-26.01,23.63v-51.36Z"/>
      <path class="cls-1" d="M58.42,109.1h11.03s12.06.15,11.98,13.63-11.81,14.22-11.81,14.22l-11.2.05v-27.9Z"/>
      <path class="cls-1" d="M58.42,68.23h11.03s12.06.15,11.98,13.63-11.81,14.22-11.81,14.22l-11.2.05v-27.9Z"/>
    </g>
  </g>
</svg>