<?xml version="1.0" encoding="UTF-8"?>
<svg id="Layer_2" data-name="Layer 2" xmlns="http://www.w3.org/2000/svg" viewBox="0 0 166.75 166.75">
  <defs>
    <style>
      .cls-1 {
        fill: #ce4c9a;
      }

      .cls-1, .cls-2 {
        stroke-width: 0px;
      }

      .cls-2 {
        fill: #eae1e6;
      }

      .cls-3 {
        fill: none;
        stroke: #71104c;
        stroke-miterlimit: 10;
        stroke-width: 2px;
      }
    </style>
  </defs>
  <g id="Layer_1-2" data-name="Layer 1">
    <rect class="cls-2" width="166.75" height="166.75"/>
    <g>
      <polyline class="cls-1" points="68.75 81.89 69.67 40.5 48.12 40.5 48.12 49.81 58.9 49.81 58.9 128.1 48.12 128.1 48.12 136.23 68.15 136.23 68.15 121.71"/>
      <circle class="cls-1" cx="95.92" cy="102.36" r="33.87"/>
      <g>
        <polyline class="cls-3" points="57.59 77.42 58.51 36.03 36.96 36.03 36.96 45.34 47.73 45.34 47.73 123.63 36.96 123.63 36.96 131.76 56.98 131.76 56.98 116.35"/>
        <path class="cls-3" d="M66.06,83.36c6.96-5.45,16.1-7.28,24.62-4.94,14.76,4.06,23.57,19.56,19.51,34.32-4.06,14.76-19.23,22.08-34.32,19.51-11.57-1.98-19.02-11.65-19.02-18.35"/>
        <path class="cls-3" d="M57.61,77.4c-4.49-5.04-7.39-11.92-7.46-18.67-.16-15.31,12.31-28.05,27.62-28.21,15.31-.16,28.05,12.31,28.21,27.62.16,15.31-12.31,28.05-27.62,28.21-4.43.05-8.8-.96-12.76-2.94"/>
      </g>
    </g>
  </g>
</svg>