<?xml version="1.0" encoding="UTF-8"?>
<svg id="Layer_2" data-name="Layer 2" xmlns="http://www.w3.org/2000/svg" viewBox="0 0 201.38 201.38">
  <defs>
    <style>
      .cls-1 {
        fill: #ce4c9a;
      }

      .cls-1, .cls-2 {
        stroke-width: 0px;
      }

      .cls-2 {
        fill: #eae1e6;
      }

      .cls-3 {
        fill: none;
        stroke: #71104c;
        stroke-miterlimit: 10;
        stroke-width: 2px;
      }
    </style>
  </defs>
  <g id="Layer_1-2" data-name="Layer 1">
    <g>
      <rect class="cls-2" x="29.49" y="29.49" width="142.39" height="142.39" transform="translate(-41.71 100.69) rotate(-45)"/>
      <g>
        <polyline class="cls-1" points="92.69 99.2 93.61 57.81 72.06 57.81 72.06 67.12 82.83 67.12 82.83 145.41 72.06 145.41 72.06 153.54 92.08 153.54 92.08 139.03"/>
        <circle class="cls-1" cx="119.86" cy="119.67" r="33.87"/>
        <g>
          <polyline class="cls-3" points="81.52 94.73 82.44 53.34 60.89 53.34 60.89 62.65 71.67 62.65 71.67 140.95 60.89 140.95 60.89 149.08 80.92 149.08 80.92 133.66"/>
          <path class="cls-3" d="M89.99,100.67c6.96-5.45,16.1-7.28,24.62-4.94,14.76,4.06,23.57,19.56,19.51,34.32-4.06,14.76-19.23,22.08-34.32,19.51-11.57-1.98-19.02-11.65-19.02-18.35"/>
          <path class="cls-3" d="M81.54,94.71c-4.49-5.04-7.39-11.92-7.46-18.67-.16-15.31,12.31-28.05,27.62-28.21,15.31-.16,28.05,12.31,28.21,27.62.16,15.31-12.31,28.05-27.62,28.21-4.43.05-8.8-.96-12.76-2.94"/>
        </g>
      </g>
    </g>
  </g>
</svg>