<?xml version="1.0" encoding="UTF-8"?>
<svg id="Layer_2" data-name="Layer 2" xmlns="http://www.w3.org/2000/svg" viewBox="0 0 96.2 109.4">
  <defs>
    <style>
      .cls-1 {
        fill: none;
        stroke: #eae1e6;
        stroke-miterlimit: 10;
        stroke-width: 2px;
      }

      .cls-2 {
        fill: #ce4c9a;
        stroke-width: 0px;
      }
    </style>
  </defs>
  <g id="Layer_1-2" data-name="Layer 1">
    <g>
      <polyline class="cls-2" points="33.61 53.67 34.55 11.23 12.45 11.23 12.45 20.78 23.5 20.78 23.5 101.07 12.45 101.07 12.45 109.4 32.99 109.4 32.99 94.52"/>
      <circle class="cls-2" cx="61.47" cy="74.67" r="34.73"/>
      <g>
        <polyline class="cls-1" points="22.16 49.09 23.1 6.65 1 6.65 1 16.2 12.05 16.2 12.05 96.48 1 96.48 1 104.82 21.53 104.82 21.53 89.02"/>
        <path class="cls-1" d="M30.84,55.18c7.13-5.59,16.51-7.47,25.25-5.06,15.14,4.17,24.17,20.06,20,35.2-4.17,15.14-19.72,22.65-35.2,20-11.87-2.03-19.5-11.95-19.5-18.82"/>
        <path class="cls-1" d="M22.18,49.07c-4.6-5.16-7.58-12.22-7.65-19.14-.17-15.7,12.62-28.76,28.32-28.93,15.7-.17,28.76,12.62,28.93,28.32.17,15.7-12.62,28.76-28.32,28.93-4.54.05-9.03-.98-13.09-3.01"/>
      </g>
    </g>
  </g>
</svg>